<?xml version="1.0" encoding="utf-8"?>
<!-- Generator: Adobe Illustrator 26.3.1, SVG Export Plug-In . SVG Version: 6.00 Build 0)  -->
<svg version="1.1" id="Layer_1" xmlns="http://www.w3.org/2000/svg" xmlns:xlink="http://www.w3.org/1999/xlink" x="0px" y="0px"
	 viewBox="0 0 62 62" style="enable-background:new 0 0 62 62;" xml:space="preserve">
<style type="text/css">
	.st0{fill:#8AA4D5;}
	.st1{fill:#F2F5FA;}
</style>
<path class="st0" d="M41.3,53.3H20.7c-6.6,0-12-5.4-12-12V20.7c0-6.6,5.4-12,12-12h20.6c6.6,0,12,5.4,12,12v20.6
	C53.3,47.9,47.9,53.3,41.3,53.3z"/>
<path id="Path_109344" class="st1" d="M31,0C13.9,0,0,13.9,0,31s13.9,31,31,31s31-13.9,31-31C62,13.9,48.1,0,31,0z M31,9.3
	c5.1,0,9.3,4.2,9.3,9.3s-4.2,9.3-9.3,9.3s-9.3-4.2-9.3-9.3C21.7,13.5,25.8,9.3,31,9.3C31,9.3,31,9.3,31,9.3z M31,53.3
	c-7.5,0-14.5-3.7-18.6-10c0.1-6.2,12.4-9.6,18.6-9.6c6.2,0,18.5,3.4,18.6,9.5C45.5,49.6,38.5,53.3,31,53.3z"/>
</svg>
