<svg width="296" height="257" viewBox="0 0 296 257" fill="none" xmlns="http://www.w3.org/2000/svg">
<path d="M45.8275 111.225H34.7836C34.568 111.225 34.3932 111.05 34.3932 110.834C34.3932 110.619 34.568 110.444 34.7836 110.444H45.8275C46.0431 110.444 46.2179 110.619 46.2179 110.834C46.2179 111.05 46.0431 111.225 45.8275 111.225Z" fill="#CECED2"/>
<path d="M30.1521 111.225H24.096C23.8803 111.225 23.7056 111.05 23.7056 110.834C23.7056 110.619 23.8803 110.444 24.096 110.444H30.1521C30.3677 110.444 30.5425 110.619 30.5425 110.834C30.5425 111.05 30.3677 111.225 30.1521 111.225Z" fill="#CECED2"/>
<path d="M45.8275 118.065H24.096C23.8803 118.065 23.7056 117.89 23.7056 117.674C23.7056 117.459 23.8803 117.284 24.096 117.284H45.8275C46.0431 117.284 46.2179 117.459 46.2179 117.674C46.2179 117.89 46.0431 118.065 45.8275 118.065Z" fill="#CECED2"/>
<path d="M45.8275 124.905H40.4838C40.2681 124.905 40.0934 124.73 40.0934 124.514C40.0934 124.299 40.2681 124.124 40.4838 124.124H45.8275C46.0432 124.124 46.2179 124.299 46.2179 124.514C46.2179 124.73 46.0432 124.905 45.8275 124.905Z" fill="#CECED2"/>
<path d="M36.2086 124.905H24.096C23.8803 124.905 23.7056 124.73 23.7056 124.514C23.7056 124.299 23.8803 124.124 24.096 124.124H36.2086C36.4242 124.124 36.599 124.299 36.599 124.514C36.5988 124.73 36.4242 124.905 36.2086 124.905Z" fill="#CECED2"/>
<path d="M285.901 81.7641H275.067C274.854 81.7641 274.681 81.5911 274.681 81.3775C274.681 81.1639 274.854 80.9908 275.067 80.9908H285.901C286.114 80.9908 286.287 81.1639 286.287 81.3775C286.287 81.5911 286.114 81.7641 285.901 81.7641Z" fill="#CECED2"/>
<path d="M270.524 81.7641H264.583C264.37 81.7641 264.196 81.5911 264.196 81.3775C264.196 81.1639 264.37 80.9908 264.583 80.9908H270.524C270.738 80.9908 270.911 81.1639 270.911 81.3775C270.911 81.5911 270.738 81.7641 270.524 81.7641Z" fill="#CECED2"/>
<path d="M285.901 88.6041H264.583C264.37 88.6041 264.197 88.431 264.197 88.2174C264.197 88.0039 264.37 87.8308 264.583 87.8308H285.901C286.114 87.8308 286.287 88.0039 286.287 88.2174C286.287 88.431 286.114 88.6041 285.901 88.6041Z" fill="#CECED2"/>
<path d="M285.901 95.4442H280.659C280.445 95.4442 280.272 95.2711 280.272 95.0575C280.272 94.8439 280.445 94.6709 280.659 94.6709H285.901C286.114 94.6709 286.287 94.8439 286.287 95.0575C286.287 95.2711 286.114 95.4442 285.901 95.4442Z" fill="#CECED2"/>
<path d="M276.465 95.4442H264.583C264.37 95.4442 264.196 95.2711 264.196 95.0575C264.196 94.8439 264.37 94.6709 264.583 94.6709H276.465C276.678 94.6709 276.852 94.8439 276.852 95.0575C276.852 95.2711 276.678 95.4442 276.465 95.4442Z" fill="#CECED2"/>
<path d="M266.814 36.2197C273.45 29.5839 273.45 18.8251 266.814 12.1892C260.179 5.5534 249.42 5.5534 242.784 12.1892C236.148 18.8251 236.148 29.5839 242.784 36.2197C249.42 42.8555 260.179 42.8555 266.814 36.2197Z" fill="#FF5C33"/>
<path d="M258.694 29.1784L254.41 24.2401L259.942 14.6998L260.496 15.0213L255.194 24.1659L259.178 28.7579L258.694 29.1784Z" fill="#0A0A20"/>
<path d="M83.5373 92.0244C82.3122 92.0244 81.31 91.0221 81.31 89.7971V65.8539C81.31 64.6288 82.3122 63.6266 83.5373 63.6266C84.7623 63.6266 85.7645 64.6288 85.7645 65.8539V89.7973C85.7645 91.0222 84.7623 92.0244 83.5373 92.0244Z" fill="#0A0A20"/>
<path d="M83.8347 125.583H83.2401C82.1787 125.583 81.3102 124.715 81.3102 123.653V106.191C81.3102 105.129 82.1787 104.261 83.2401 104.261H83.8347C84.8962 104.261 85.7646 105.129 85.7646 106.191V123.653C85.7646 124.715 84.8961 125.583 83.8347 125.583Z" fill="#0A0A20"/>
<path d="M197.915 256.184H94.0456C88.3043 256.184 83.6501 251.53 83.6501 245.789V28.8899C83.6501 23.1486 88.3044 18.4945 94.0456 18.4945H197.915C203.656 18.4945 208.31 23.1488 208.31 28.8899V245.789C208.31 251.53 203.656 256.184 197.915 256.184Z" fill="#CECED2"/>
<path d="M195.911 246.868H96.0492C92.5888 246.868 89.7836 244.063 89.7836 240.603V36.8824C89.7836 33.4221 92.5888 30.6168 96.0492 30.6168H195.911C199.371 30.6168 202.176 33.4221 202.176 36.8824V240.603C202.177 244.063 199.371 246.868 195.911 246.868Z" fill="#FFFFFC"/>
<path d="M152.477 26.0469H132.358C131.38 26.0469 130.588 25.2545 130.588 24.2772C130.588 23.2998 131.38 22.5076 132.358 22.5076H152.477C153.454 22.5076 154.246 23.3 154.246 24.2772C154.246 25.2547 153.454 26.0469 152.477 26.0469Z" fill="#FFFFFC"/>
<path d="M166.596 24.2784C166.596 25.6721 165.528 26.8178 164.164 26.9375C164.087 26.946 164.006 26.9503 163.924 26.9503C163.305 26.9503 162.74 26.7408 162.287 26.386C161.825 26.0312 161.483 25.5182 161.338 24.9325C161.282 24.723 161.253 24.505 161.253 24.2784C161.253 22.8549 162.368 21.6878 163.775 21.6151C163.822 21.6066 163.873 21.6066 163.924 21.6066C164.66 21.6066 165.318 21.9015 165.801 22.3761C166.152 22.7223 166.404 23.1627 166.519 23.6543C166.571 23.8552 166.596 24.0647 166.596 24.2784Z" fill="#FFFFFC"/>
<path d="M102.982 42.7887C103.21 41.8511 102.634 40.9064 101.697 40.6785C100.759 40.4507 99.8146 41.0261 99.5867 41.9637C99.3589 42.9013 99.9343 43.8461 100.872 44.0739C101.81 44.3017 102.754 43.7263 102.982 42.7887Z" fill="#007BFF"/>
<path d="M110.008 42.6578C110.163 41.7054 109.516 40.808 108.564 40.6534C107.611 40.4988 106.714 41.1456 106.559 42.0981C106.405 43.0505 107.052 43.9479 108.004 44.1025C108.956 44.2571 109.854 43.6103 110.008 42.6578Z" fill="#007BFF"/>
<path d="M116.503 43.6137C117.185 42.9314 117.185 41.8252 116.503 41.1429C115.821 40.4606 114.715 40.4606 114.032 41.1429C113.35 41.8252 113.35 42.9314 114.032 43.6137C114.715 44.296 115.821 44.296 116.503 43.6137Z" fill="#007BFF"/>
<path d="M188.734 41.5924C189.665 41.5924 190.419 40.8379 190.419 39.9073C190.419 38.9767 189.665 38.2223 188.734 38.2223C187.803 38.2223 187.049 38.9767 187.049 39.9073C187.049 40.8379 187.803 41.5924 188.734 41.5924Z" fill="#007BFF"/>
<path d="M192.04 46.2436C192.04 44.4481 190.585 42.9926 188.789 42.9926C186.994 42.9926 185.538 44.4481 185.538 46.2436C185.538 46.3604 185.545 46.4757 185.557 46.5894H192.021C192.033 46.4758 192.04 46.3606 192.04 46.2436Z" fill="#007BFF"/>
<path d="M165.218 130.784H126.743C125.332 130.784 124.178 129.63 124.178 128.219C124.178 126.809 125.332 125.654 126.743 125.654H165.218C166.628 125.654 167.783 126.809 167.783 128.219C167.783 129.63 166.628 130.784 165.218 130.784Z" fill="#C0D8FF"/>
<path d="M115.778 175.269C116.579 171.9 114.498 168.52 111.129 167.718C107.76 166.917 104.379 168.999 103.578 172.368C102.776 175.737 104.858 179.117 108.227 179.919C111.596 180.72 114.977 178.638 115.778 175.269Z" fill="#C0D8FF"/>
<path d="M184.907 169.758H128.478V170.186H184.907V169.758Z" fill="#007BFF"/>
<path d="M172.51 173.606H128.478V174.033H172.51V173.606Z" fill="#007BFF"/>
<path d="M184.907 177.453H128.478V177.881H184.907V177.453Z" fill="#007BFF"/>
<path d="M109.667 158.144C113.13 158.144 115.937 155.337 115.937 151.874C115.937 148.411 113.13 145.604 109.667 145.604C106.205 145.604 103.397 148.411 103.397 151.874C103.397 155.337 106.205 158.144 109.667 158.144Z" fill="#C0D8FF"/>
<path d="M184.907 147.813H128.478V148.241H184.907V147.813Z" fill="#007BFF"/>
<path d="M172.51 151.661H128.478V152.088H172.51V151.661Z" fill="#007BFF"/>
<path d="M184.907 155.508H128.478V155.936H184.907V155.508Z" fill="#007BFF"/>
<path d="M109.667 154.546C111.143 154.546 112.339 153.35 112.339 151.874C112.339 150.399 111.143 149.202 109.667 149.202C108.192 149.202 106.996 150.399 106.996 151.874C106.996 153.35 108.192 154.546 109.667 154.546Z" fill="#007BFF"/>
<path d="M118.788 192.344H103.398V207.734H118.788V192.344Z" fill="#EFF5FF"/>
<path d="M143.583 192.344H128.193V207.734H143.583V192.344Z" fill="#EFF5FF"/>
<path d="M168.378 192.344H152.988V207.734H168.378V192.344Z" fill="#EFF5FF"/>
<path d="M193.173 192.344H177.783V207.734H193.173V192.344Z" fill="#EFF5FF"/>
<path d="M153.962 232.54H137.998C135.455 232.54 133.375 230.46 133.375 227.918V226.525C133.375 223.983 135.455 221.902 137.998 221.902H153.962C156.505 221.902 158.585 223.983 158.585 226.525V227.918C158.585 230.46 156.505 232.54 153.962 232.54Z" fill="#FF5C33"/>
<path d="M147.671 230.085L147.369 229.782L149.93 227.222L147.369 224.66L147.671 224.358L150.535 227.222L147.671 230.085Z" fill="#FFFFFC"/>
<path d="M150.232 227.008H141.634V227.435H150.232V227.008Z" fill="#FFFFFC"/>
<path d="M134.412 56.8496H133.287H127.716H122.638H107.648V95.4672H127.716V68.5175H133.287V73.1175H141.302V56.8496H134.412Z" fill="#007BFF"/>
<path d="M184.312 115.755H107.648V56.8499H184.312V115.755ZM108.076 115.328H183.884V57.2774H108.076V115.328Z" fill="#007BFF"/>
<path d="M184.098 89.5621V115.541H107.862C107.862 115.541 107.862 95.7788 107.862 95.7395C107.862 92.4617 112.154 86.7507 114.08 84.1241C116.751 80.4806 120.196 77.0878 124.601 75.6959C137.054 71.7606 139.786 83.2031 146.431 90.3145C151.497 95.7266 156.08 97.8171 163.304 98.5781C169.952 99.279 177.104 93.5206 184.098 89.5621Z" fill="#FFFFFC"/>
<path d="M184.312 115.755H107.648V95.7394C107.648 92.5178 111.569 87.1811 113.675 84.3143L113.908 83.9976C117.213 79.4898 120.689 76.7075 124.537 75.492C133.983 72.5053 137.92 78.2213 142.087 84.272C143.477 86.2903 144.914 88.3776 146.587 90.1683C151.457 95.3711 155.994 97.5928 163.327 98.3653C168.46 98.9062 174.032 95.459 179.421 92.125C180.921 91.1963 182.473 90.2363 183.993 89.3759L184.312 89.1953V115.755H184.312ZM108.076 115.327H183.884V89.9299C182.473 90.7387 181.037 91.6274 179.645 92.4886C174.196 95.8605 168.564 99.3486 163.282 98.7904C155.834 98.0057 151.224 95.7483 146.275 90.4605C144.58 88.6464 143.133 86.546 141.734 84.5145C137.66 78.5977 133.811 73.0098 124.665 75.8995C120.908 77.0871 117.502 79.8183 114.252 84.2501L114.02 84.5672C112.09 87.1934 108.076 92.6577 108.076 95.7393V115.327H108.076Z" fill="#007BFF"/>
<path d="M61.6707 166.372V189.294C61.6707 191.008 60.2813 192.394 58.5713 192.394H36.9783C35.264 192.394 33.8746 191.008 33.8746 189.294V166.282C33.8746 165.068 34.8622 164.08 36.0805 164.08H59.3793C60.6447 164.08 61.6707 165.106 61.6707 166.372Z" fill="#FFFFFC"/>
<path d="M58.5713 192.714H36.9783C35.0903 192.714 33.5542 191.18 33.5542 189.294V166.282C33.5542 164.891 34.6876 163.76 36.0807 163.76H59.3795C60.8198 163.76 61.9915 164.931 61.9915 166.371V189.294C61.9913 191.18 60.4571 192.714 58.5713 192.714ZM36.0806 164.401C35.041 164.401 34.1953 165.245 34.1953 166.282V189.294C34.1953 190.826 35.4437 192.073 36.9781 192.073H58.5713C60.1035 192.073 61.3501 190.826 61.3501 189.294V166.372C61.3501 165.285 60.466 164.401 59.3793 164.401L36.0806 164.401Z" fill="#0A0A20"/>
<path d="M62.3277 166.725C62.3277 165.053 60.9718 163.697 59.2993 163.697H57.4443H57.4251H52.5608H52.5417H47.6774H47.6583H42.794H42.7748H37.9106H37.8914H35.1276C33.9571 163.697 33.0082 164.634 33.0082 165.791V174.735C33.0082 176.01 34.0025 177.043 35.2291 177.043H35.6896C36.9162 177.043 37.9106 176.01 37.9106 174.735V173.223C37.9106 171.948 38.9049 170.914 40.1315 170.914H40.5539C41.7805 170.914 42.7748 171.948 42.7748 173.223C42.7748 174.497 43.7692 175.531 44.9958 175.531H45.4563C46.6829 175.531 47.6772 174.497 47.6772 173.223V170.764C47.6772 169.489 48.6716 168.456 49.8982 168.456H50.3206C51.5471 168.456 52.5415 169.489 52.5415 170.764V173.378C52.5415 174.653 53.5359 175.686 54.7625 175.686H55.223C56.4495 175.686 57.4439 174.653 57.4439 173.378V171.729C57.4439 170.454 58.4383 169.421 59.6649 169.421H60.1062C61.3328 169.421 62.3272 168.388 62.3272 167.113V166.725H62.3277Z" fill="#FF5C33"/>
<path opacity="0.6" d="M61.6707 186.973V189.294C61.6707 191.008 60.2813 192.394 58.5713 192.394H36.9783C35.264 192.394 33.8746 191.008 33.8746 189.294V176.298C38.1197 181.582 46.9476 189.14 61.6707 186.973Z" fill="#CECED2"/>
<path d="M42.3063 195.15L24.5848 256.552L25.4065 256.789L43.1279 195.387L42.3063 195.15Z" fill="#0A0A20"/>
<path d="M53.0452 195.14L52.2236 195.377L69.9386 256.779L70.7603 256.542L53.0452 195.14Z" fill="#0A0A20"/>
<path d="M65.7338 196.729H29.602C28.2869 196.729 27.2109 195.653 27.2109 194.338C27.2109 193.022 28.2869 191.947 29.602 191.947H65.7338C67.049 191.947 68.1249 193.022 68.1249 194.338C68.1249 195.653 67.049 196.729 65.7338 196.729Z" fill="#0A0A20"/>
<path d="M22.5779 40.4962H14.1747V74.5415H22.5779V40.4962Z" fill="#F5F5F6"/>
<path d="M28.1381 49.5928H22.5823V74.5413H28.1381V49.5928Z" fill="#E2E2E4"/>
<path d="M33.6956 49.5928H28.1398V74.5413H33.6956V49.5928Z" fill="#F5F5F6"/>
<path d="M37.5105 50.701L33.719 52.6141L44.9583 74.8882L48.7499 72.975L37.5105 50.701Z" fill="#F5F5F6"/>
<path d="M58.2681 74.5386H10.1768V78.6617H58.2681V74.5386Z" fill="#E2E2E4"/>
<path d="M248.892 152.59C248.844 152.141 247.762 141.537 251.362 138.151L251.801 138.618C248.431 141.787 249.518 152.416 249.53 152.522L248.892 152.59Z" fill="#0A0A20"/>
<path d="M254.007 141.454C249.642 142.912 248.997 137.658 248.997 137.658C248.997 137.658 249.963 137.171 251.583 138.385C250.762 136.153 249.677 134.631 248.321 133.798C247.099 133.049 246.069 132.023 245.479 130.72L235.92 109.558C239.323 106.476 242.734 103.62 246.158 101.034C246.983 103.313 247.749 105.732 248.445 108.301C249.074 110.61 249.651 113.042 250.173 115.599C250.728 118.318 251.22 121.178 251.647 124.183C251.964 126.406 252.571 128.582 253.439 130.651C254.99 134.362 257.008 140.454 254.007 141.454Z" fill="#FF8F78"/>
<path d="M258.41 152.823C257.132 147.392 254.818 142.737 251.336 138.591L251.827 138.178C255.375 142.403 257.732 147.145 259.035 152.676L258.41 152.823Z" fill="#0A0A20"/>
<path d="M268.222 154.95V177.963C268.222 179.673 266.832 181.062 265.122 181.062H243.529C241.815 181.062 240.425 179.673 240.425 177.963V152.749H266.02C267.234 152.749 268.222 153.732 268.222 154.95Z" fill="#FFFFFC"/>
<path d="M265.122 181.383H243.529C241.641 181.383 240.105 179.848 240.105 177.963V152.428H266.02C267.411 152.428 268.542 153.56 268.542 154.95V177.963C268.542 179.848 267.008 181.383 265.122 181.383ZM240.746 153.069V177.963C240.746 179.495 241.994 180.741 243.529 180.741H265.122C266.654 180.741 267.901 179.495 267.901 177.963V154.95C267.901 153.913 267.057 153.069 266.02 153.069H240.746Z" fill="#0A0A20"/>
<path opacity="0.6" d="M268.222 174.808V177.963C268.222 179.673 266.832 181.062 265.122 181.062H243.529C241.815 181.062 240.425 179.673 240.425 177.963V155.185C245.09 161.406 254.409 171.332 268.222 174.808Z" fill="#CECED2"/>
<path d="M240.126 152.364H244.95H244.969H249.774H249.793H254.598H254.617H259.422H259.441H264.246H264.265H266.996C268.152 152.364 269.089 153.301 269.089 154.458V163.402C269.089 164.677 268.107 165.71 266.895 165.71H266.44C265.229 165.71 264.246 164.677 264.246 163.402V161.89C264.246 160.615 263.264 159.581 262.053 159.581H261.635C260.424 159.581 259.441 160.615 259.441 161.89C259.441 163.164 258.459 164.198 257.247 164.198H256.792C255.581 164.198 254.598 163.164 254.598 161.89V159.431C254.598 158.156 253.616 157.123 252.405 157.123H251.987C250.776 157.123 249.793 158.156 249.793 159.431V162.045C249.793 163.32 248.811 164.353 247.599 164.353H247.144C245.933 164.353 244.95 163.32 244.95 162.045V160.396C244.95 159.121 243.968 158.088 242.757 158.088H242.32C241.109 158.088 240.127 157.055 240.127 155.78V152.364H240.126Z" fill="#007BFF"/>
<path opacity="0.4" d="M250.172 115.599C249.848 115.548 249.518 115.453 249.202 115.312C247.146 114.415 246.21 112.021 247.107 109.964C247.407 109.276 247.877 108.712 248.445 108.301C249.074 110.61 249.651 113.042 250.172 115.599Z" fill="#FF5C33"/>
<path d="M221.52 79.8389L211.853 82.2249L211.103 79.5673L209.344 73.3144L212.603 71.7431L216.373 69.926L221.52 79.8389Z" fill="#FF8F78"/>
<path d="M213.051 72.5996C213.051 72.5996 212.41 77.0883 210.629 77.9433L209.344 73.3144L212.603 71.743L213.051 72.5996Z" fill="#0A0A20"/>
<path d="M204.701 60.7891C204.701 60.7891 202.68 71.5393 205.752 74.2875C208.796 77.0112 214.643 74.6916 217.31 71.0544C219.978 67.4172 218.28 61.5167 218.28 61.5167L209.631 59.0919L204.701 60.7891Z" fill="#FF8F78"/>
<path d="M204.324 62.4596C204.324 62.4596 207.449 61.1125 207.934 63.699C208.419 66.2856 210.44 67.2555 212.218 66.3665L217.795 66.5281C221.433 62.1633 219.735 56.0473 214.293 54.9156C208.538 53.5998 203.462 58.3644 204.324 62.4596Z" fill="#0A0A20"/>
<path d="M212.353 68.3332C212.353 68.3332 212.676 74.1528 218.011 74.0989C223.346 74.0451 223.399 65.4773 223.399 65.4773L215.694 60.4121L212.353 68.3332Z" fill="#0A0A20"/>
<path d="M214.64 67.6772C214.012 69.0919 212.588 69.8327 211.459 69.3318C210.33 68.8311 209.924 67.2783 210.551 65.8637C211.179 64.4491 212.602 63.7083 213.732 64.2092C214.861 64.71 215.267 66.2627 214.64 67.6772Z" fill="#FF8F78"/>
<path d="M219.927 58.4743C219.509 58.5685 219.26 58.7251 219.074 58.8715C218.891 59.0281 218.742 59.1784 218.569 59.3759C218.522 59.4146 218.481 59.4709 218.437 59.5232L218.294 59.6744C218.204 59.7898 218.093 59.8898 217.984 60.0086C217.756 60.238 217.517 60.4849 217.148 60.7186C217.01 60.3153 217.006 59.9266 217.086 59.5516C217.119 59.3626 217.203 59.1834 217.279 59.004C217.379 58.8301 217.482 58.6581 217.63 58.504C217.902 58.1931 218.333 57.9409 218.8 57.9045C219.266 57.8746 219.736 58.0784 219.927 58.4743Z" fill="#FF5C33"/>
<path d="M241.316 230.799L246.945 244.593H262.777L258.204 229.721L241.316 230.799Z" fill="#FF8F78"/>
<path d="M225.023 252.328C224.707 253.208 224.531 254.149 224.531 255.122C224.531 256.043 225.277 256.789 226.198 256.789H265.383C266.141 256.789 266.795 256.244 266.925 255.497C267.116 254.393 267.226 253.306 267.238 252.239C251.531 253.518 232.163 254.097 225.023 252.328Z" fill="#0A0A20"/>
<path d="M267.238 252.239C267.281 248.44 266.003 244.908 262.035 241.917C256.719 243.761 251.258 243.761 245.654 241.917L230.102 247.3C227.687 248.135 225.853 250.015 225.023 252.328C232.163 254.098 251.531 253.518 267.238 252.239Z" fill="#FF5C33"/>
<path d="M260.617 250.495C259.918 250.495 259.287 250.052 259.06 249.37C258.915 248.935 258.958 248.456 259.179 248.055C259.4 247.655 259.781 247.361 260.226 247.252L265.704 245.898L265.857 246.521L260.38 247.875C260.105 247.942 259.878 248.116 259.741 248.365C259.605 248.613 259.579 248.898 259.668 249.167C259.824 249.634 260.29 249.916 260.777 249.841L266.863 248.884L266.962 249.517L260.876 250.475C260.789 250.489 260.702 250.495 260.617 250.495Z" fill="#0A0A20"/>
<path d="M235.4 249.322C233.452 249.322 231.519 248.717 229.914 247.559L230.289 247.039C232.49 248.627 235.351 249.099 237.945 248.3L239.516 247.817C242.32 246.954 244.487 244.758 245.312 241.943L245.346 241.827L245.962 242.007L245.928 242.124C245.041 245.146 242.715 247.504 239.705 248.43L238.134 248.913C237.241 249.188 236.319 249.322 235.4 249.322Z" fill="#0A0A20"/>
<path d="M240.852 253.608L240.849 253.377C240.849 253.275 240.849 253.254 241.466 252.598L241.778 252.891C241.338 253.359 241.263 253.456 241.251 253.475L241.074 253.377L241.082 253.59L240.852 253.608ZM254.603 252.928L254.393 252.697L254.709 252.409L254.919 252.64L254.603 252.928ZM242.367 252.274L242.058 251.977L242.459 251.562C242.528 251.491 242.599 251.423 242.673 251.358L242.956 251.678C242.891 251.736 242.827 251.797 242.766 251.86L242.367 252.274ZM253.817 252.066L253.544 251.767C253.448 251.662 253.346 251.564 253.239 251.473L253.517 251.148C253.637 251.251 253.753 251.362 253.859 251.479L254.133 251.778L253.817 252.066ZM243.615 251.22L243.414 250.842C243.679 250.701 243.962 250.59 244.254 250.513L244.364 250.926C244.102 250.995 243.851 251.094 243.615 251.22ZM248.561 251.217L248.515 250.792C248.782 250.763 249.045 250.703 249.298 250.613L249.441 251.016C249.157 251.117 248.861 251.185 248.561 251.217ZM247.657 251.207C247.583 251.197 247.51 251.186 247.437 251.172L246.804 251.053L246.883 250.633L247.516 250.752C247.581 250.765 247.647 250.775 247.713 250.783L247.657 251.207ZM252.573 251.026C252.333 250.904 252.08 250.81 251.82 250.747L251.92 250.331C252.212 250.402 252.497 250.507 252.767 250.645L252.573 251.026ZM245.964 250.896L245.86 250.876C245.651 250.837 245.438 250.817 245.226 250.817L245.158 250.817L245.15 250.389L245.23 250.389H245.23C245.464 250.389 245.704 250.412 245.939 250.456L246.043 250.476L245.964 250.896ZM250.226 250.743L250.127 250.327C250.416 250.259 250.714 250.224 251.013 250.223L251.023 250.651C250.748 250.651 250.483 250.682 250.226 250.743Z" fill="#0A0A20"/>
<path d="M234.044 245.818L233.537 246.21L234.631 247.628L235.138 247.237L234.044 245.818Z" fill="#0A0A20"/>
<path d="M237.398 244.695L236.868 245.057L237.858 246.504L238.387 246.141L237.398 244.695Z" fill="#0A0A20"/>
<path d="M240.273 243.691L239.752 244.065L240.73 245.425L241.251 245.051L240.273 243.691Z" fill="#0A0A20"/>
<path d="M263.977 234.461H240.049L226.408 187.889C225.446 184.597 224.642 181.259 224.005 177.89C223.975 177.723 223.945 177.561 223.915 177.394C223.586 175.611 223.304 173.824 223.069 172.029L221.021 156.434L217.204 127.338L240.267 122.379C246.731 127.77 247.676 138.859 244.79 152.988L263.977 234.461Z" fill="#003E80"/>
<path d="M238.866 229.898L238.678 229.514C243.041 227.377 247.416 227.926 252.481 228.559C255.662 228.958 258.95 229.372 262.703 229.207L262.722 229.634C258.934 229.798 255.478 229.366 252.428 228.984C247.431 228.358 243.115 227.818 238.866 229.898Z" fill="#007BFF"/>
<path d="M223.915 177.394C223.586 175.611 223.304 173.824 223.069 172.029L221.021 156.434L223.809 154.04C227.724 161.183 226.425 169.968 223.915 177.394Z" fill="#0A0A20"/>
<path d="M204.243 230.799L209.872 244.593H225.704L221.13 229.721L204.243 230.799Z" fill="#FF8F78"/>
<path d="M187.949 252.328C187.633 253.208 187.458 254.149 187.458 255.122C187.458 256.043 188.204 256.789 189.125 256.789H228.309C229.068 256.789 229.722 256.244 229.851 255.497C230.043 254.393 230.153 253.306 230.165 252.239C214.458 253.518 195.089 254.097 187.949 252.328Z" fill="#0A0A20"/>
<path d="M230.165 252.239C230.208 248.44 228.93 244.908 224.962 241.917C219.645 243.761 214.185 243.761 208.581 241.917L193.028 247.3C190.614 248.135 188.78 250.015 187.949 252.328C195.089 254.098 214.458 253.518 230.165 252.239Z" fill="#FF5C33"/>
<path d="M223.544 250.495C222.845 250.495 222.214 250.052 221.986 249.37C221.842 248.935 221.885 248.456 222.106 248.055C222.327 247.654 222.708 247.362 223.152 247.252L228.631 245.898L228.784 246.521L223.306 247.875C223.031 247.943 222.805 248.117 222.668 248.365C222.531 248.613 222.505 248.898 222.595 249.167C222.75 249.634 223.212 249.919 223.703 249.841L229.789 248.884L229.888 249.518L223.803 250.475C223.716 250.488 223.629 250.495 223.544 250.495Z" fill="#0A0A20"/>
<path d="M198.326 249.322C196.379 249.322 194.446 248.717 192.841 247.559L193.216 247.039C195.416 248.627 198.277 249.099 200.872 248.3L202.443 247.817C205.247 246.954 207.414 244.758 208.239 241.943L208.273 241.827L208.889 242.007L208.854 242.124C207.968 245.146 205.642 247.503 202.631 248.43L201.06 248.913C200.168 249.188 199.245 249.322 198.326 249.322Z" fill="#0A0A20"/>
<path d="M203.779 253.608L203.776 253.377C203.776 253.275 203.776 253.254 204.393 252.598L204.704 252.891C204.264 253.359 204.19 253.456 204.177 253.475L204 253.377L204.009 253.59L203.779 253.608ZM217.804 253.356L217.275 252.725L217.602 252.45L218.131 253.081L217.804 253.356ZM205.293 252.274L204.984 251.978L205.386 251.562C205.454 251.491 205.526 251.423 205.599 251.358L205.882 251.678C205.817 251.736 205.754 251.797 205.693 251.859L205.293 252.274ZM216.725 252.07L216.465 251.76C216.375 251.661 216.273 251.563 216.166 251.472L216.444 251.147C216.565 251.251 216.68 251.363 216.786 251.479L217.052 251.796L216.725 252.07ZM206.542 251.22L206.34 250.842C206.605 250.701 206.888 250.59 207.181 250.513L207.29 250.926C207.029 250.995 206.777 251.094 206.542 251.22ZM211.488 251.217L211.442 250.792C211.709 250.763 211.972 250.703 212.224 250.613L212.368 251.016C212.084 251.117 211.788 251.185 211.488 251.217ZM210.583 251.207C210.51 251.197 210.436 251.186 210.363 251.172L209.73 251.053L209.81 250.633L210.442 250.752C210.507 250.765 210.573 250.775 210.639 250.783L210.583 251.207ZM215.5 251.026C215.259 250.904 215.006 250.81 214.746 250.747L214.847 250.331C215.139 250.402 215.424 250.507 215.693 250.645L215.5 251.026ZM208.89 250.895L208.787 250.876C208.578 250.837 208.364 250.817 208.153 250.817L208.084 250.818L208.076 250.39L208.153 250.389C208.391 250.389 208.631 250.412 208.866 250.456L208.969 250.475L208.89 250.895ZM213.152 250.743L213.054 250.327C213.343 250.259 213.641 250.224 213.94 250.223L213.95 250.651C213.674 250.651 213.409 250.682 213.152 250.743Z" fill="#0A0A20"/>
<path d="M196.961 245.832L196.454 246.224L197.548 247.643L198.056 247.251L196.961 245.832Z" fill="#0A0A20"/>
<path d="M200.323 244.695L199.794 245.057L200.784 246.503L201.313 246.141L200.323 244.695Z" fill="#0A0A20"/>
<path d="M203.198 243.692L202.677 244.067L203.655 245.427L204.176 245.053L203.198 243.692Z" fill="#0A0A20"/>
<path d="M205.779 127.338L192.485 174.582C192.008 176.277 191.671 178.008 191.476 179.758C191.099 183.156 191.264 186.593 191.965 189.94L201.252 234.247L226.04 234.032L218.065 183.164L236.17 123.89L205.779 127.338Z" fill="#003E80"/>
<path d="M217.92 229.86C215.234 229.86 212.664 229.571 210.264 229.302C206.419 228.87 203.098 228.498 200.438 229.409L200.299 229.005C203.05 228.062 206.415 228.44 210.311 228.877C214.779 229.379 219.842 229.946 225.11 228.573L225.218 228.986C222.721 229.638 220.276 229.86 217.92 229.86Z" fill="#007BFF"/>
<path d="M218.315 183.099L217.905 182.975L225.325 158.504L225.344 158.476C227.737 155.025 230.146 146.27 228.597 141.999L228.998 141.853C230.585 146.227 228.151 155.15 225.715 158.692L218.315 183.099Z" fill="#007BFF"/>
<path d="M216.492 148.526C216.468 148.526 216.443 148.526 216.418 148.526C214.91 148.504 213.482 147.835 212.5 146.69C211.519 145.544 211.077 144.03 211.288 142.536L212.082 136.903H222.776L221.689 144.059C221.301 146.618 219.074 148.526 216.492 148.526ZM212.453 137.33L211.711 142.595C211.517 143.968 211.923 145.359 212.825 146.411C213.726 147.464 215.039 148.078 216.424 148.098C218.833 148.151 220.906 146.368 221.267 143.995L222.278 137.33H212.453Z" fill="#007BFF"/>
<path d="M211.892 140.39L211.888 140.817L221.987 140.924L221.992 140.497L211.892 140.39Z" fill="#007BFF"/>
<path d="M161.983 78.814H158.103V91.1H161.983V78.814Z" fill="#0A0A20"/>
<path d="M150.546 77.1975V80.754H169.541V77.1975C164.388 77.1975 154.977 77.1975 150.546 77.1975Z" fill="#0A0A20"/>
<path d="M169.541 65.0732H150.546V77.1975C154.977 77.1975 164.388 77.1975 169.541 77.1975V65.0732Z" fill="#E2E2E4"/>
<path d="M169.527 65.0732H166.361H166.349H163.196H163.183H160.03H160.017H156.864H156.852H153.698H153.686H150.52V72.5447C150.52 73.4076 151.165 74.1072 151.96 74.1072H152.259C153.054 74.1072 153.698 73.4076 153.698 72.5447V71.521C153.698 70.6581 154.343 69.9587 155.138 69.9587H155.412C156.207 69.9587 156.852 70.6583 156.852 71.521C156.852 72.3838 157.497 73.0832 158.292 73.0832H158.59C159.385 73.0832 160.03 72.3838 160.03 71.521V69.8568C160.03 68.9939 160.675 68.2945 161.47 68.2945H161.744C162.539 68.2945 163.183 68.9941 163.183 69.8568V71.626C163.183 72.4888 163.828 73.1882 164.623 73.1882H164.922C165.717 73.1882 166.362 72.4887 166.362 71.626V70.51C166.362 69.6472 167.006 68.9476 167.801 68.9476H168.088C168.883 68.9476 169.528 68.248 169.528 67.3853V65.0732H169.527Z" fill="#007BFF"/>
<path d="M241.55 126.385L203.763 130.249C202.989 130.322 202.395 129.698 202.395 129.005C202.395 128.813 202.442 128.612 202.54 128.424C203.246 127.09 203.494 125.564 203.254 124.076L201.497 113.094L200.112 104.467L199.099 98.1313L235.903 91.8257L243.307 123.927C243.58 125.107 242.755 126.261 241.55 126.385Z" fill="#E81A64"/>
<path d="M205.995 103.522L201.497 113.094L200.112 104.467L205.995 103.522Z" fill="#0A0A20"/>
<path d="M239.552 87.6196C235.273 81.2055 227.788 77.6309 220.113 78.3643C216.953 78.6663 213.661 79.2171 210.195 80.1082C200.257 82.6628 191.353 88.2372 184.597 95.9589L184.147 96.4733C187.03 101.076 189.624 106.819 191.959 113.584C197.063 110.774 201.772 107.459 205.995 103.521L231.536 99.8565L235.919 109.556C239.323 106.475 242.736 103.622 246.159 101.034C244.27 95.8279 242.058 91.3766 239.552 87.6196Z" fill="#E81A64"/>
<path d="M191.96 113.585C189.57 114.898 187.103 116.112 184.547 117.206L183.021 117.664C182.816 117.724 182.61 117.779 182.405 117.826C179.72 118.459 176.878 118.014 174.586 116.531C174.214 116.292 173.859 116.026 173.522 115.732C169.114 111.905 165.309 105.339 161.163 98.888C161.163 98.888 153.211 93.0398 159.115 87.6234C160.004 87.6234 160.487 88.4314 160.65 88.192C160.812 87.9483 160.487 86.2511 160.975 86.2511C161.458 86.2511 165.741 90.2653 166.712 94.3351C170.213 95.8699 178.028 103.467 178.028 103.467L184.145 96.4726C187.031 101.077 189.626 106.818 191.96 113.585Z" fill="#FF8F78"/>
<path opacity="0.4" d="M182.405 117.826C179.72 118.459 176.878 118.014 174.586 116.531C174.787 116.039 175.082 115.582 175.48 115.184C177.066 113.598 179.639 113.598 181.225 115.184C181.961 115.92 182.354 116.869 182.405 117.826Z" fill="#FF5C33"/>
<path d="M234.993 92.8466L234.586 92.9792L239.003 106.517L239.41 106.384L234.993 92.8466Z" fill="#0A0A20"/>
<path d="M239.528 81.4863C239.745 80.7023 239.292 79.7912 238.537 79.4899C238.117 79.3225 237.637 79.328 237.236 79.119C236.319 78.6409 236.267 77.3444 236.516 76.3408C236.765 75.3372 237.186 74.2654 236.788 73.3113C236.326 72.2072 235.001 71.7995 233.836 71.5223C231.869 71.054 229.902 70.5856 227.934 70.1174C227.594 70.0363 227.227 69.9392 227.01 69.6649C226.677 69.2448 226.847 68.6335 227.036 68.1319C227.469 66.9801 227.924 65.8282 228.156 64.6199C228.389 63.4116 228.386 62.1269 227.921 60.9877C227.178 59.1678 225.279 57.9509 223.32 57.7897C221.36 57.6284 219.393 58.4314 217.918 59.7309C216.831 60.6883 216.284 62.1644 216.314 63.6127C216.344 65.0611 216.891 66.4765 217.754 67.6403C218.024 68.0045 218.328 68.3534 218.495 68.7747C218.663 69.1959 218.664 69.7212 218.36 70.0579C218.06 70.3913 217.569 70.4462 217.134 70.5574C215.631 70.9416 214.434 72.3142 214.257 73.8555C214.08 75.3967 214.935 77.0049 216.311 77.7201C216.963 78.0586 217.697 78.2045 218.371 78.4969C219.045 78.7893 219.697 79.2912 219.863 80.0067C220.126 81.1373 219.114 82.1185 218.666 83.1893C218.442 83.7237 218.359 84.3044 218.276 84.878C218.156 85.7193 218.041 86.6085 218.366 87.3937C218.784 88.4033 219.82 88.9938 220.797 89.4826C221.834 90.0018 222.886 90.4917 223.951 90.9517L239.528 81.4863Z" fill="#0A0A20"/>
<path d="M295.381 255.934H0.619385V256.789H295.381V255.934Z" fill="#CECED2"/>
</svg>
