<svg width="325" height="228" viewBox="0 0 325 228" fill="none" xmlns="http://www.w3.org/2000/svg">
<path d="M58.4358 207.905L59.4361 215.504C59.4361 215.504 78.2663 223.516 76.5598 223.634C74.7945 223.751 47.7261 221.984 47.7261 221.984L49.3149 208.2L58.4358 207.905Z" fill="#1C1C1C"/>
<path d="M53.1987 84.1402C53.1987 84.1402 51.6687 98.6315 50.5507 99.3384C49.4327 100.104 47.9027 100.458 47.9027 100.458L50.3153 83.9045L53.1987 84.1402Z" stroke="#424242" stroke-miterlimit="10"/>
<path d="M23.4235 74.1848C23.4235 74.1848 15.7737 91.4448 18.0098 101.047L60.3188 94.5669L59.4361 76.6589L23.4235 74.1848Z" fill="#1C1C1C"/>
<path d="M60.3188 94.5668C60.3188 94.5668 60.5542 135.979 60.8484 150.411C61.1426 164.844 63.6729 209.437 63.6729 209.437C63.6729 209.437 55.7878 213.796 47.5496 210.262C46.9023 209.967 39.7822 94.2134 39.7822 94.2134L60.3188 94.5668Z" fill="#1C1C1C"/>
<path d="M18.716 95.9218L0.827332 209.79C0.827332 209.79 8.65361 217.095 18.4806 210.438L36.6634 117.423L45.4901 111.473L46.7846 94.5081L18.716 95.9218Z" fill="#1C1C1C"/>
<path d="M14.0085 207.022L15.6561 213.56C15.6561 213.56 27.5426 227.875 25.7773 227.875C24.012 227.875 4.53455 219.039 4.53455 219.039L7.06485 205.431L14.0085 207.022Z" fill="#1C1C1C"/>
<path d="M25.2477 81.136C25.2477 81.136 14.0084 128.498 5.59369 212.206" stroke="#424242" stroke-miterlimit="10"/>
<path d="M32.9563 86.261C32.9563 86.261 29.0137 96.0986 22.3055 96.2753" stroke="#424242" stroke-miterlimit="10"/>
<path d="M49.6091 210.968L43.8424 112.946L49.4914 106.996" stroke="#424242" stroke-miterlimit="10"/>
<path d="M49.5503 24.5845C52.4926 23.9954 54.611 23.5242 54.611 23.5242L72.8527 33.5385C72.9115 33.5385 72.9115 33.5974 72.9703 33.5974C78.9724 36.8962 81.6204 42.4925 81.4439 50.3861L82.3266 61.7553L72.4407 53.6849L64.0849 69.8256L58.7889 88.9117C30.426 99.2206 19.4221 80.7236 19.4221 80.7236L28.8372 60.3415L32.6621 41.5499C34.3685 31.8891 39.8999 26.5285 49.5503 24.5845Z" fill="#9EC68A"/>
<path d="M202.898 56.7481C202.898 56.7481 200.015 68.7064 183.833 83.3744C183.833 83.3744 182.303 81.1948 185.716 72.771C189.188 64.2883 202.192 53.7438 202.898 56.7481Z" fill="#7E9E6E"/>
<path d="M202.898 56.748C202.898 56.748 188.599 65.6431 183.833 83.3743C183.833 83.3743 182.715 89.5007 184.48 94.9202" stroke="#1C1C1C" stroke-miterlimit="10" stroke-linecap="round"/>
<path d="M165.532 64.1704C165.532 64.1704 169.534 61.5196 163.414 53.8026C157.588 46.4981 151.351 39.9004 138.523 36.7783C138.523 36.7783 141.288 54.6274 149.527 59.34C157.647 64.1115 165.532 64.1704 165.532 64.1704Z" fill="#7E9E6E"/>
<path d="M133.168 75.0682C133.168 75.0682 146.526 78.8972 169.946 72.7119C169.946 72.7119 168.651 70.2378 158.471 68.7651C148.291 67.3513 130.638 72.9475 133.168 75.0682Z" fill="#7E9E6E"/>
<path d="M133.168 75.0684C133.168 75.0684 149.938 67.5282 169.946 72.7121C169.946 72.7121 172.005 73.3601 173.947 76.3644" stroke="#1C1C1C" stroke-miterlimit="10" stroke-linecap="round"/>
<path d="M143.642 88.0869C143.642 88.0869 157.529 98.5725 180.949 92.3871C180.949 92.3871 177.007 84.0222 166.768 82.5495C156.588 81.0769 141.053 85.9662 143.642 88.0869Z" fill="#7E9E6E"/>
<path d="M143.642 88.087C143.642 88.087 159.707 81.7839 180.949 92.3873C180.949 92.3873 183.421 93.6832 185.363 96.6875" stroke="#1C1C1C" stroke-miterlimit="10" stroke-linecap="round"/>
<path d="M195.66 44.7308C195.66 44.7308 199.956 44.4952 188.893 53.5081C178.478 61.9908 179.714 62.1675 179.714 62.1675C179.714 62.1675 184.304 48.7365 195.66 44.7308Z" fill="#1C1C1C"/>
<path d="M172.24 66.2912C172.24 66.2912 175.359 67.705 181.479 62.8156C187.599 57.8674 190.482 46.2626 195.66 44.731C195.66 44.731 182.656 48.0298 172.24 66.2912Z" fill="#7E9E6E"/>
<path d="M190.6 108.174C184.951 94.6846 176.889 79.1919 165.532 64.1704C165.532 64.1704 162.767 60.0469 152.94 49.09C143.113 38.1921 138.523 36.7783 138.523 36.7783" stroke="#1C1C1C" stroke-miterlimit="10" stroke-linecap="round"/>
<path d="M194.072 45.261C194.072 45.261 181.656 49.738 172.24 66.291C169.946 70.2968 172.182 73.7134 174.006 76.3053" stroke="#1C1C1C" stroke-miterlimit="10" stroke-linecap="round"/>
<path d="M319.939 200.954C319.939 200.954 307.876 204.547 287.752 191.529C287.752 191.529 289.046 187.994 298.167 187.464C307.288 186.934 322.352 198.127 319.939 200.954Z" fill="#7E9E6E"/>
<path d="M319.469 200.07C319.469 200.07 306.229 189.644 287.987 191.175C287.987 191.175 281.867 192.236 277.336 195.77" stroke="#1C1C1C" stroke-miterlimit="10" stroke-linecap="round"/>
<path d="M293.695 174.092C293.695 174.092 297.579 176.979 302.698 168.555C307.582 160.602 311.642 152.473 310.23 139.337C310.23 139.337 294.401 148.055 292.753 157.362C291.106 166.67 293.695 174.092 293.695 174.092Z" fill="#7E9E6E"/>
<path d="M324.765 189.055C324.765 189.055 327.295 192.53 313.761 188.112C300.992 183.93 301.521 185.049 301.521 185.049C301.521 185.049 315.291 181.691 324.765 189.055Z" fill="#1C1C1C"/>
<path d="M293.989 181.043C293.989 181.043 294.46 184.46 301.874 186.934C309.289 189.408 320.646 185.52 324.706 189.114C324.765 189.055 314.997 179.924 293.989 181.043Z" fill="#7E9E6E"/>
<path d="M260.919 212.677C271.687 202.78 283.456 189.879 293.695 174.092C293.695 174.092 296.637 170.086 303.581 157.127C310.466 144.167 310.23 139.337 310.23 139.337" stroke="#1C1C1C" stroke-miterlimit="10" stroke-linecap="round"/>
<path d="M323.529 188.053C323.529 188.053 312.996 180.042 294.048 181.043C289.458 181.279 287.34 183.518 283.927 187.818" stroke="#1C1C1C" stroke-miterlimit="10" stroke-linecap="round"/>
<path d="M194.601 80.9002C198.308 80.9002 201.839 79.6042 204.722 77.2479L212.608 70.7092C215.432 68.3529 218.786 67.0569 222.258 67.0569H261.272C264.802 67.0569 267.686 69.9434 267.686 73.4778V80.9002V214.797C267.686 220.924 262.743 225.872 256.623 225.872H62.0841C57.3177 225.872 53.4929 222.043 53.4929 217.272V89.5007C53.4929 84.7292 57.3177 80.9002 62.0841 80.9002H194.601Z" fill="#333969"/>
<path d="M53.4929 217.978C53.4929 217.978 66.7328 193.119 68.0274 190.292L104.217 116.539C105.099 114.595 107.1 113.299 109.218 113.299H243.618C248.503 113.299 255.564 110.707 259.33 107.585L264.744 103.049C267.568 100.693 270.922 99.3972 274.394 99.3972H311.525C315.467 99.3972 318.174 103.403 316.644 107.055L271.746 215.74C269.216 221.807 263.272 225.813 256.682 225.813H55.9055C54.6109 225.813 53.3752 224.694 53.3752 223.398L53.4929 217.978Z" fill="#7584F1"/>
<path d="M108.159 120.31L55.0817 223.575" stroke="#1C1C1C" stroke-miterlimit="10" stroke-linejoin="round"/>
<path d="M129.99 138.1H175.712C176.948 138.1 178.125 137.452 178.772 136.45C180.302 134.035 178.596 130.913 175.712 130.913H129.99C128.755 130.913 127.578 131.561 126.93 132.562C125.4 134.977 127.107 138.1 129.99 138.1Z" stroke="#1C1C1C" stroke-miterlimit="10" stroke-linejoin="round"/>
<path d="M215.491 173.621L179.949 194.828" stroke="#1C1C1C" stroke-miterlimit="10" stroke-linecap="round" stroke-linejoin="round"/>
<path d="M186.422 172.561L208.783 194.946" stroke="#1C1C1C" stroke-miterlimit="10" stroke-linecap="round" stroke-linejoin="round"/>
<path d="M203.525 203.594C217.777 199.648 226.914 187.704 223.933 176.918C220.953 166.131 206.983 160.586 192.732 164.533C178.48 168.479 169.343 180.423 172.323 191.209C175.304 201.996 189.273 207.541 203.525 203.594Z" stroke="#1C1C1C" stroke-miterlimit="10" stroke-linecap="round" stroke-linejoin="round"/>
<path d="M62.5549 72.7119L69.1454 80.1343C69.1454 80.1343 62.9668 87.4388 56.6705 83.1386L55.6701 81.6659L62.5549 72.7119Z" fill="#9EC68A"/>
<path d="M47.2554 28.4724C47.2554 28.4724 56.3174 30.8287 49.1972 56.9837" stroke="#1C1C1C" stroke-miterlimit="10" stroke-linecap="round"/>
<path d="M63.1433 73.4778C58.2593 67.9994 52.316 61.1072 48.7853 56.3357" stroke="#1C1C1C" stroke-miterlimit="10" stroke-linecap="round"/>
<path d="M56.6705 83.1388C51.963 78.3083 45.6666 71.4751 42.901 68.942C38.6053 64.9952 34.1332 58.6332 35.6043 50.445L35.4277 43.9062" stroke="#1C1C1C" stroke-miterlimit="10" stroke-linecap="round"/>
<path d="M84.798 79.6042C79.0313 76.4821 76.3833 72.5942 74.1472 69.7666C68.8512 62.9333 66.9682 62.1086 68.4981 54.1561L68.557 45.8501L80.0905 58.3385C84.5038 64.1704 94.625 74.656 98.391 78.7795C98.391 78.7206 94.0365 84.6114 84.798 79.6042Z" fill="#9EC68A"/>
<path d="M61.3192 77.4835C61.8488 77.3656 62.3784 77.3067 62.9668 77.3656C64.9675 77.6013 70.2047 78.1314 70.8519 78.1314C71.6169 78.1314 72.2054 77.0711 73.7353 81.0179C75.3241 85.0236 75.0299 85.3771 75.0299 85.9073C75.0299 86.4374 73.853 94.0954 72.6173 92.9173C71.3815 91.7391 71.5581 91.0911 71.5581 91.0911C71.5581 91.0911 70.9108 94.2132 70.5577 94.0954C70.2047 93.9776 68.9101 93.9776 69.1455 91.798C69.1455 91.798 68.4393 93.9187 67.7332 93.3885C67.0271 92.8584 67.1448 90.561 67.1448 90.561C67.1448 90.561 66.3798 92.2693 65.4971 91.15C64.6145 89.9719 65.2617 87.321 65.2617 87.321L64.4968 85.3182L62.908 84.6113C62.908 84.6113 57.4943 86.0251 56.5528 82.255C55.7878 79.3685 59.5539 78.0136 61.3192 77.4835Z" fill="#DB9C7F"/>
<path d="M72.2642 82.3728L73.2646 86.6731L71.5581 91.15" stroke="#1C1C1C" stroke-miterlimit="10" stroke-linecap="round"/>
<path d="M69.6162 82.2549L70.9696 86.6141L69.1454 91.7979" stroke="#1C1C1C" stroke-miterlimit="10" stroke-linecap="round"/>
<path d="M67.3213 82.7261L68.0863 86.9674L67.2036 90.0895" stroke="#1C1C1C" stroke-miterlimit="10" stroke-linecap="round"/>
<path d="M62.908 1.37476C60.9661 3.20089 60.9661 5.38048 60.9661 5.38048C60.9661 5.38048 60.3188 4.55577 59.495 4.32014" stroke="#1C1C1C" stroke-miterlimit="10" stroke-linecap="round"/>
<path d="M90.3882 76.3053C92.2123 75.8341 94.1542 76.1875 95.8018 77.0122C97.9791 78.1315 101.451 79.8987 101.922 80.0165C102.569 80.1932 103.04 79.8398 103.099 83.9044C103.157 85.4949 103.157 86.6142 102.981 87.0854C102.863 87.5567 99.6267 92.3871 98.5675 91.7391L98.5087 91.6802C98.2144 92.0337 97.8614 92.5049 97.5083 92.7995C97.2141 93.0351 95.743 92.9762 96.508 91.0322C96.508 91.0322 95.5076 93.2707 94.6838 92.9762C93.6246 92.5638 93.8011 91.5624 94.213 90.7377C93.7423 91.3857 93.1538 91.9159 92.6831 91.3268C91.8593 90.2075 93.7423 86.2607 93.7423 86.2607L93.9777 83.9044L92.5654 82.6084C92.5654 82.6084 87.446 82.7263 87.5636 79.074C87.5636 77.4246 88.9171 76.6588 90.3882 76.3053Z" fill="#DB9C7F"/>
<path d="M101.686 82.4316L101.627 86.7908L98.4498 91.3856" stroke="#1C1C1C" stroke-miterlimit="10" stroke-linecap="round"/>
<path d="M99.4501 82.4316L99.1559 86.9086L96.5079 91.0322" stroke="#1C1C1C" stroke-miterlimit="10" stroke-linecap="round"/>
<path d="M97.1553 82.5496L96.8022 86.3197L94.5073 90.1487" stroke="#1C1C1C" stroke-miterlimit="10" stroke-linecap="round"/>
<path d="M90.6236 81.5482C90.6236 81.5482 91.1532 85.4361 89.8586 86.3197C88.564 87.2033 86.5633 79.1329 87.9756 79.0151C90.0351 78.8384 90.6236 81.5482 90.6236 81.5482Z" fill="#DB9C7F"/>
<path d="M92.33 81.0178C92.33 81.0178 91.0943 81.1945 90.7412 82.6672" stroke="#1C1C1C" stroke-miterlimit="10" stroke-linecap="round"/>
<path d="M68.1451 62.1676L74.206 54.274C79.7374 46.9105 76.0302 39.1936 76.0302 39.1936" stroke="#1C1C1C" stroke-miterlimit="10" stroke-linecap="round"/>
<path d="M82.3265 61.7551C82.3265 61.7551 78.737 56.8069 77.972 58.9865" stroke="#1C1C1C" stroke-miterlimit="10" stroke-linecap="round"/>
<path d="M83.68 20.5198L82.6796 20.2842" stroke="#FFFFFC" stroke-miterlimit="10"/>
<path d="M62.2018 19.5774L54.6109 23.5831C54.6109 23.5831 54.4344 32.6549 62.9668 39.4882L66.7917 35.777L70.6754 39.6649C70.6754 39.6649 72.1465 38.4868 72.5584 33.244L71.8523 26.8819L62.2018 19.5774Z" fill="#FFFFFC"/>
<path d="M71.8523 26.823L62.2019 19.5774L54.611 23.5242" stroke="#1C1C1C" stroke-miterlimit="10" stroke-linecap="round" stroke-linejoin="round"/>
<path d="M59.9658 20.9322C59.9658 20.9322 62.3195 34.7166 65.7913 35.718C69.2631 36.7195 71.4404 29.8273 71.4404 29.8273L64.7321 10.9768L59.9658 20.9322Z" fill="#DB9C7F"/>
<path d="M72.7938 31.4176L72.8526 33.126C72.9115 33.126 72.7938 33.6561 71.0873 33.8328C63.6141 33.5972 63.0256 25.2323 62.4372 18.5168C62.4372 18.5758 73.4999 30.0628 72.7938 31.4176Z" fill="#1C1C1C"/>
<path d="M83.2092 12.6852C83.2092 12.6852 85.151 30.1808 74.9122 33.0083C64.6733 35.8359 62.2018 19.165 62.5549 13.3332C62.9079 7.5602 65.7913 4.67372 72.9703 4.43809C83.5622 4.08465 83.2092 12.6852 83.2092 12.6852Z" fill="#DB9C7F"/>
<path d="M67.9097 7.97246C67.9097 7.97246 67.7332 11.6247 65.2617 12.3905L63.4964 17.8101C63.4964 17.8101 62.0253 15.3948 60.4365 14.5701C60.4365 14.5701 58.6712 7.4423 60.9073 4.61473C63.1433 1.78716 66.2621 0.37337 73.7941 0.962447C79.502 1.43371 82.8561 5.49834 83.9742 7.56011C84.3272 8.20809 85.2099 10.0931 83.1504 11.9782C83.1504 11.9782 83.1504 10.5644 81.9735 8.9739C82.0323 8.91499 79.2666 14.5112 67.9097 7.97246Z" fill="#1C1C1C"/>
<path d="M58.0828 18.6936C58.73 20.991 60.5542 22.5226 62.143 22.1102C63.7318 21.6978 64.5556 19.4594 63.9083 17.162C63.261 14.8646 61.4369 13.3329 59.8481 13.7453C58.2593 14.1577 57.4355 16.3961 58.0828 18.6936Z" fill="#DB9C7F"/>
<path d="M72.8527 19.4595C72.8527 20.0486 73.088 20.5788 73.4999 20.5788C73.853 20.5788 74.2061 20.1075 74.2061 19.5184C74.2061 18.9293 73.9707 18.3992 73.5588 18.3992C73.2057 18.3992 72.8527 18.8704 72.8527 19.4595Z" fill="#1C1C1C"/>
<path d="M80.7378 19.9308C80.6789 20.461 80.9143 20.9911 81.2674 20.9911C81.6204 21.0501 81.9147 20.5788 81.9735 20.0486C82.0323 19.5185 81.797 18.9883 81.4439 18.9883C81.0908 18.9883 80.7966 19.4006 80.7378 19.9308Z" fill="#1C1C1C"/>
<path d="M70.6166 14.7468C70.6166 14.7468 73.3234 15.3358 73.4999 12.7439" stroke="#1C1C1C" stroke-miterlimit="10" stroke-linecap="round"/>
<path d="M79.7963 14.5112C79.7963 14.5112 80.5024 16.9264 82.5031 15.5127" stroke="#1C1C1C" stroke-miterlimit="10" stroke-linecap="round"/>
<path d="M72.3819 29.0025C72.3819 29.0025 71.4992 25.3502 68.7335 27.4709L72.3819 29.0025Z" fill="#1C1C1C"/>
<path d="M59.6715 16.6908C59.6715 16.6908 61.4957 15.1592 62.4372 17.9867C62.4372 17.9867 61.378 19.106 62.0253 19.9896C62.0253 19.9896 60.9661 20.2252 60.4953 19.2827" stroke="#1C1C1C" stroke-miterlimit="10" stroke-linecap="round" stroke-linejoin="round"/>
<path d="M60.4954 17.7511C60.4954 17.7511 60.613 17.1031 61.3192 16.3962" stroke="#1C1C1C" stroke-miterlimit="10" stroke-linecap="round" stroke-linejoin="round"/>
<path d="M79.149 19.8718C79.149 21.5801 80.2082 22.935 81.4439 22.935C82.7385 22.935 83.7388 21.5801 83.7388 19.8718C83.7388 18.1635 82.6796 16.8086 81.4439 16.8086C80.2082 16.8086 79.149 18.1635 79.149 19.8718Z" stroke="#FFFFFC" stroke-miterlimit="10"/>
<path d="M70.4988 19.4594C70.4988 21.2266 71.7934 22.6993 73.4411 22.6993C75.0887 22.6993 76.3833 21.2266 76.3833 19.4594C76.3833 17.6922 75.0887 16.2195 73.4411 16.2195C71.8523 16.2195 70.4988 17.6333 70.4988 19.4594Z" stroke="#FFFFFC" stroke-miterlimit="10"/>
<path d="M79.2666 20.7556C79.2666 20.7556 78.5605 17.6924 76.2067 20.5199" stroke="#FFFFFC" stroke-miterlimit="10"/>
<path d="M70.5577 18.2225L63.7318 16.6909" stroke="#FFFFFC" stroke-miterlimit="10"/>
<path d="M79.5609 22.0515C79.9139 22.4639 79.9728 22.994 79.7962 23.5242C79.6197 24.0544 79.0901 24.4078 78.5017 24.4078C78.2663 24.4078 77.9721 24.3489 77.7367 24.2311C77.619 24.1722 77.4425 24.0544 77.3248 24.1133C76.7363 24.3489 76.0891 23.8777 76.2656 23.4653" stroke="#1C1C1C" stroke-miterlimit="10" stroke-linecap="round"/>
</svg>
